<?xml version="1.0" encoding="UTF-8"?>
<svg id="Layer_2" data-name="Layer 2" xmlns="http://www.w3.org/2000/svg" viewBox="0 0 56.53 56.5">
  <g id="Layer_1-2" data-name="Layer 1">
    <g>
      <path d="M49.4,49.44V7.08c-.24,0-.45,0-.65,0-5.64,0-11.28-.01-16.92-.03-1.89,0-3.37-1.32-3.55-3.1-.19-1.87,.96-3.47,2.78-3.87,.32-.07,.66-.07,.99-.07,5.75,0,11.49-.01,17.24,0,4.14,.01,7.22,3.1,7.23,7.23,0,13.99,0,27.98,0,41.96,0,4.21-3.03,7.27-7.23,7.28-5.85,.02-11.7,.01-17.55,0-1.77,0-3.22-1.3-3.45-3.01-.24-1.78,.77-3.39,2.49-3.89,.43-.12,.9-.14,1.36-.14,5.45,0,10.91,0,16.36,0,.29,0,.57,0,.9,0Z"/>
      <path d="M11.55,31.8c.45,.43,.78,.75,1.12,1.07,2.46,2.28,4.92,4.55,7.38,6.83,1.55,1.43,1.67,3.58,.3,5.07-1.33,1.45-3.61,1.53-5.11,.15-1.09-1-2.15-2.03-3.22-3.05-3.41-3.24-6.83-6.47-10.24-9.71-2.32-2.21-2.38-5.54-.06-7.76,4.48-4.29,8.99-8.55,13.51-12.8,1.48-1.39,3.76-1.32,5.12,.11,1.38,1.45,1.29,3.63-.26,5.07-2.6,2.43-5.22,4.84-7.84,7.25-.2,.18-.39,.37-.73,.69,.43,0,.69,0,.94,0,6.41,0,12.82,0,19.24,0,2.06,0,3.61,1.51,3.62,3.49,.01,1.94-1.5,3.51-3.44,3.54-1.75,.02-3.5,0-5.25,0-4.77,0-9.54,0-14.3,0-.2,0-.4,.02-.77,.03Z"/>
    </g>
  </g>
</svg>